<?xml version="1.0" encoding="UTF-8"?>
<svg xmlns="http://www.w3.org/2000/svg" id="a" width="250" height="150" viewBox="0 0 865.76 682.89">
  <rect x="78.94" y="39.18" width="588.86" height="393.48" rx="18.52" ry="18.52" fill="#e6e7e8" stroke="#002346" stroke-miterlimit="10"></rect>
  <rect x="305.71" y="214.74" width="164.54" height="202.56" rx="7.66" ry="7.66" fill="#fff" stroke="#002346" stroke-miterlimit="10"></rect>
  <g>
    <rect x="320.77" y="230.05" width="55.11" height="22.83" fill="#e6e7e8" stroke="#002346" stroke-miterlimit="10"></rect>
    <rect x="386.77" y="238.05" width="68.43" height="6.83" fill="#e6e7e8" stroke="#002346" stroke-miterlimit="10"></rect>
  </g>
  <g>
    <rect x="320.77" y="275.05" width="55.11" height="22.83" fill="#e6e7e8" stroke="#002346" stroke-miterlimit="10"></rect>
    <rect x="386.77" y="283.05" width="68.43" height="6.83" fill="#e6e7e8" stroke="#002346" stroke-miterlimit="10"></rect>
  </g>
  <ellipse cx="504.16" cy="628.09" rx="34.51" ry="7.02" fill="#e6e7e8" stroke="#002346" stroke-miterlimit="10"></ellipse>
  <path d="M611.63,626.14c-.02,1.25-.53,2.44-1.41,3.32-6.64,6.69-22.37,11.59-22.37,11.59-12.25,3.84-12.4-4-12.4-4.44,1.02,1.79,3.09,2.69,5.09,2.22,7.55-1.73,27.43-7.65,28.94-21.94,2.05,2.67,2.24,6.84,2.15,9.25Z" fill="#fff" stroke="#002346" stroke-miterlimit="10"></path>
  <path d="M614.09,619.69l1.82,5.78c.19,.55,.8,.84,1.35,.65,.06-.02,.11-.05,.17-.08l3.18-1.74c.38-.21,.59-.62,.55-1.05l-.54-9.17-6.52,5.61Z" fill="#fff" stroke="#002346" stroke-miterlimit="10"></path>
  <path d="M543.86,627.95l-1.38,5.9c-.12,.57,.26,1.13,.83,1.25,.06,.01,.12,.02,.18,.02l3.62,.12c.43,.01,.83-.23,1.01-.63l3.65-7.09c.23-.44-.15-.95-.63-.86l-7.28,1.29Z" fill="#fff" stroke="#002346" stroke-miterlimit="10"></path>
  <path d="M611.48,592.8s-4.32,2.25-8.32-2c-.9-1.01-1.58-2.19-2-3.48-.85-2.4-3.17-7.11-8.31-6.32l-11.16-44s4.9-18.53,6.17-34.83c1.27,.9,2.81,1.34,4.36,1.23h8.09s8.5,22.66,8.71,43l2.46,46.4Z" fill="#f2b3c1" stroke="#002346" stroke-miterlimit="10"></path>
  <path d="M618.56,619.88h0c-2.02,1.09-4.51,.43-5.79-1.48-2.09-3.09-3.24-1.52-3.24-1.52-1.51,14.29-21.39,20.21-28.94,21.94-2.02,.51-4.14-.39-5.17-2.2h0c-1.23-2.2-1.44-4.83-.58-7.2,.86-2.37,2.5-4.38,4.66-5.68,19.35-12.22,13.31-42.71,13.31-42.71,5.14-.79,7.46,3.92,8.31,6.32,.42,1.29,1.1,2.47,2,3.48,4,4.25,8.32,2,8.32,2l5,7.13c3.15,4.86,4.69,10.56,4.43,16.3-.07,1.52-.97,2.89-2.31,3.61Z" fill="#f69074" stroke="#002346" stroke-miterlimit="10"></path>
  <ellipse cx="671.08" cy="634.86" rx="44.33" ry="8.84" fill="#fff" stroke="#002346" stroke-miterlimit="10"></ellipse>
  <rect x="661.27" y="515.94" width="16.13" height="118.92" fill="#e6e7e8" stroke="#002346" stroke-miterlimit="10"></rect>
  <path d="M627.88,511.78h84v3.37c0,2.76-2.24,5-5,5h-74.1c-2.76,0-5-2.24-5-5v-3.37h.1Z" fill="#fff" stroke="#002346" stroke-miterlimit="10"></path>
  <rect x="96.57" y="53.97" width="192.39" height="142.92" rx="9.28" ry="9.28" fill="#fff" stroke="#002346" stroke-miterlimit="10"></rect>
  <rect x="130.36" y="160.76" width="142.52" height="6.66" rx="2.25" ry="2.25" fill="#fff" opacity=".15"></rect>
  <rect x="130.36" y="176.74" width="142.52" height="6.66" rx="2.25" ry="2.25" fill="#fff" opacity=".15"></rect>
  <rect x="130.36" y="121.24" width="142.52" height="6.66" rx="2.25" ry="2.25" fill="#fff" opacity=".15"></rect>
  <rect x="305.71" y="53.97" width="345.27" height="142.92" rx="15.14" ry="15.14" fill="#fff" stroke="#002346" stroke-miterlimit="10"></rect>
  <rect x="97.57" y="214.74" width="192.39" height="202.56" rx="10.61" ry="10.61" fill="#fff" stroke="#002346" stroke-miterlimit="10"></rect>
  <rect x="488.45" y="214.74" width="162.52" height="122.93" rx="3.73" ry="3.73" fill="#fff" stroke="#002346" stroke-miterlimit="10"></rect>
  <rect x="504.44" y="235.92" width="61.96" height="16.05" fill="#f69074" stroke="#002346" stroke-miterlimit="10"></rect>
  <rect x="504.44" y="303.81" width="95.9" height="16.05" fill="#e6e7e8" stroke="#002346" stroke-miterlimit="10"></rect>
  <rect x="504.44" y="268.94" width="79.39" height="16.93" fill="#fbe493" stroke="#002346" stroke-miterlimit="10"></rect>
  <rect x="321.21" y="316.02" width="134.78" height="89.47" rx="3.73" ry="3.73" fill="#e6e7e8" stroke="#002346" stroke-miterlimit="10"></rect>
  <rect x="498.97" y="417.3" width="11.37" height="209.21" fill="#fff" stroke="#002346" stroke-miterlimit="10"></rect>
  <ellipse cx="509.91" cy="413.92" rx="189.76" ry="13.99" fill="#e6e7e8" stroke="#002346" stroke-miterlimit="10"></ellipse>
  <ellipse cx="508.67" cy="409" rx="187.46" ry="13.99" fill="#fff" stroke="#002346" stroke-miterlimit="10"></ellipse>
  <polygon points="696.13 305.17 696.13 318.5 710.15 318.5 710.15 306.46 696.13 305.17" fill="#f2b3c1" stroke="#002346" stroke-miterlimit="10"></polygon>
  <path d="M692,325.47v-4.75c0-1.23,1.2-2.22,2.68-2.22h19.97l-3.5,7-19.14-.03Z" fill="#fff" stroke="#002346" stroke-miterlimit="10"></path>
  <path d="M673.3,440.97v-103.12c2.29-5.42,9.64-9.06,14.42-10.92,2.5-1,4.29-1.45,4.29-1.45h26v131.65c-27.63,1.26-44.71-16.16-44.71-16.16Z" fill="#f69074" stroke="#002346" stroke-miterlimit="10"></path>
  <path d="M709.16,455.75v.05c-7.24,25.1-28.09,31.37-28.09,31.37l-85.77-.49c-7.06-.34-9.41,2.87-9.41,2.87-2.68-1.38-4.2-4.44-5.32-7.73-2.76-7.95-1.9-18.69-1.9-18.69,6.07-14,94.63-22.18,94.63-22.18,7.77,6.34,21.57,7.93,21.57,7.93l.12,.14c4.56,4.66,14.17,6.73,14.17,6.73Z" fill="#fbe493" stroke="#002346" stroke-miterlimit="10"></path>
  <path d="M578.66,463.14s-12.02,2.74-16.2,22.2c0,0-16.65,86.06-21.7,98.68,0,0,7.82-.75,5.3,13.38,2.52,1.92,4.74,4.22,6.56,6.81l21.7-45.64c2.93-6.17,5.21-12.62,6.82-19.25,2.73-11.32,6.65-28.91,6.71-37.1l-1.73-12.91s-8.51-2.61-7.46-26.17Z" fill="#f2b3c1" stroke="#002346" stroke-miterlimit="10"></path>
  <path d="M550.07,630.08c-.7,1.14-1.91,1.86-3.24,1.93-3,.07-2.87-3.57-2.87-3.57,.21-5-3.2-3.32-3.2-3.32-.25,.36-.53,.68-.81,1-8.59,9.67-28.65,5.4-36.48,3.26-2.75-.74-4.37-3.57-3.63-6.31,.08-.31,.2-.61,.33-.9l.09-.17c4.38-7.12,11.12-7.65,15.28-7.68,1.26,.02,2.51-.17,3.71-.56,13.74-4.81,21.51-29.74,21.51-29.74,3.88,.21,5.29,3.13,5.7,6.19,.64,4.85,2.48,9.46,5.57,13.25,.37,.45,.59,.73,.59,.73,3.56,8.51,2.6,18.24-2.55,25.89Z" fill="#f69074" stroke="#002346" stroke-miterlimit="10"></path>
  <path d="M539.95,626.12c-1.22,21.47-37.18,7.39-37.18,7.39-10.46-4.28-2.51-11.51-2.51-11.51l-.09,.17c-1.24,2.56-.16,5.64,2.4,6.88,.29,.14,.59,.25,.9,.33,7.83,2.14,27.94,6.41,36.48-3.26Z" fill="#fff" stroke="#002346" stroke-miterlimit="10"></path>
  <path d="M606.41,503.44h127.9v3.37c0,2.76-2.24,5-5,5h-118c-2.76,0-5-2.24-5-5v-3.37h.1Z" fill="#e6e7e8" stroke="#002346" stroke-miterlimit="10"></path>
  <path d="M598.88,489.3v-48.49c0-4.5,3.64-8.15,8.14-8.16h107.88v5.91h-102.43c-4.5,0-8.15,3.65-8.15,8.15h0s.23,42.59,.23,42.59h-5.67Z" fill="#e6e7e8" stroke="#002346" stroke-miterlimit="10"></path>
  <path d="M673.29,432.62h-66.26s-7-.71-8.15,8.14v19.91c0,1.27-1.34,2.1-2.47,1.52-3.23-1.67-8.37-6.23-7.22-18.22,0,0-1.17-19.38,12.76-22.44l54.94-8.75s6.24-.74,5.4-12.88c0,0,7.8,5.31,15.49,3.33,1.15-.29,2.25-.74,3.28-1.33,0,0,2.84,27.73-7.77,30.73Z" fill="#f2b3c1" stroke="#002346" stroke-miterlimit="10"></path>
  <rect x="490.1" y="392.91" width="132.92" height="9.72" fill="#fbe493" stroke="#002346" stroke-miterlimit="10"></rect>
  <polygon points="470.24 321.27 490.1 392.92 577.77 392.92 558.65 320.88 470.24 321.27" fill="#fbe493" stroke="#002346" stroke-miterlimit="10"></polygon>
  <polygon points="476.53 325.46 493.81 390.47 572.8 390.47 556.24 325.46 476.53 325.46" fill="#fff" stroke="#002346" stroke-miterlimit="10"></polygon>
  <rect x="680.15" y="258.38" width="39" height="53" rx="19.5" ry="19.5" fill="#f2b3c1" stroke="#002346" stroke-miterlimit="10"></rect>
  <g>
    <circle cx="724" cy="254.63" r="10.48" fill="#002346" stroke="#002346" stroke-miterlimit="10"></circle>
    <circle cx="716.66" cy="259.64" r="8.06" fill="#f69074" stroke="#002346" stroke-miterlimit="10"></circle>
    <path d="M689.46,267.77c1.85,2.22,6.03,5.87,14.74,8.41,0,0-1.94,6.65,6.33,13.82,0,0,7.13,12.88-5.87,20.88,0,0,3.59,.36,10.26-.41,0,0,3.11,4.77,9.7,5.78,2.67,.41,5.39-.7,6.93-2.92,2.06-2.98,3.87-8.71,2.08-19.56,0,0-1.93-37.32-22.73-41.69,0,0-9.27-3.51-18.36-.85-9.17,2.67-13.62,17.74-11.78,24.76l2.02-2.77c1.64-2.24,1.96-2.69,3.08-5,.11-.23,.27-.44,.45-.62h0c.91-.86,2.35-.78,3.15,.19Z" fill="#002346" stroke="#002346" stroke-miterlimit="10"></path>
  </g>
  <ellipse cx="711.45" cy="288.56" rx="5.3" ry="6.82" fill="#f2b3c1" stroke="#002346" stroke-miterlimit="10"></ellipse>
  <path d="M786.32,349.3c-.6,6.54-1.81,13.01-3.48,19.36-4.34,16.57-15.14,59.39-15.65,77.36,0,0-.73,11.27-2.83,23.9-.21,1.2-.42,2.42-.65,3.64-.02,.13-.05,.26-.07,.39-3.18,17.11-18.19,29.48-35.6,29.48h-135.84c-3.13,0-6.01-1.75-7.43-4.54-.11-.21-.21-.43-.3-.65-.44-1.01-.66-2.09-.65-3.19,0-4.62,3.75-8.37,8.37-8.38h.05l88.81,.49h7.42c5.31,.02,10.4-2.15,14.05-6,7.45-7.85,18.12-23.47,17.07-47.86l-5.95-59.43s-12.84-60.63,15.15-65.73c2.52-.44,5.1-.48,7.63-.12l28.23-.24s26.05-6.04,21.67,41.51Z" fill="#fff" stroke="#002346" stroke-miterlimit="10"></path>
  <path d="M719.6,433.34c1,24.4-9.63,40-17.07,47.86-3.64,3.84-8.71,6.01-14,6h-7.42s34-12.27,32.3-61.35l-5.49-49.91s-10.28-66.07,20.92-67.77c-21.2,6.7-15.2,65.7-15.2,65.7l5.96,59.47Z" fill="#e6e7e8" stroke="#002346" stroke-miterlimit="10"></path>
  <line x1="591.34" y1="456.46" x2="591.15" y2="441.38" fill="none" stroke="#002346" stroke-linecap="round" stroke-linejoin="round"></line>
  <line x1="594.34" y1="460.46" x2="594.15" y2="445.38" fill="none" stroke="#002346" stroke-linecap="round" stroke-linejoin="round"></line>
  <path d="M325.57,281.93c1.61-1.99,3.28-3.93,4.71-6.05,1.09-1.6,2.03-3.3,2.79-5.09,.12-.34,.5-.52,.85-.39l.14,.07c1.05,.7,1.57,1.95,1.34,3.19-.19,1.09-.59,2.14-1.18,3.08l-1.24,2.54c-.06,.13,.07,.26,.2,.21,2.13-.94,12.65-5.53,14.34-5.19,.7,0,1.27,.57,1.26,1.27,0,0,0,0,0,0,.06,.63-1.1,1.46-1.1,1.46l-7.74,4.28s10.87-4.74,12.11-4.11c1.24,.63,1.38,1.81-.17,2.91-.77,.55-5.4,2.65-8.29,3.93-.17,.08-.07,.33,.11,.28,2.9-.86,7.45-2.09,8.3-1.63,1.27,.68,.38,1.93-.56,2.14-.67,.15-4.62,1.81-6.88,2.76-.17,.07-.09,.33,.09,.29,2.01-.44,5.18-1.02,5.72-.52,.8,.75-.13,1.61-1.03,2.21-.82,.55-15.42,5.58-17.93,6.44,0,0-.02,0-.02,.01l-15.18,8.72c-.07,.04-.16,.02-.2-.05l-7.59-12.69c-.05-.08-.01-.19,.08-.22l14.5-5.51c.22-.08,.38-.26,.45-.48,.19-.65,.75-2.14,2.16-3.88Z" fill="#f2b3c1" stroke="#002346" stroke-miterlimit="10"></path>
  <path d="M117.85,627.17c-.45,.13-.77,.55-.75,1.02,.08,2.23,1.89,8.11,19.45,5.2,5.84-.77,11.4-3,16.15-6.48,.2-.16,.47-.16,.67,0,.76,.7,1.27,1.63,1.46,2.64,.2,1.01,1.09,1.72,2.12,1.7l10.25-.42s2.57-.44,1.47-8l-4.83-6.21-15.42,1.61-30.57,8.94Z" fill="#fff" stroke="#002346" stroke-miterlimit="10"></path>
  <path d="M194.35,597.22v13.13s11.63,7.14,17.12,.83v-12.14l-17.12-1.82Z" fill="#f2b3c1" stroke="#002346" stroke-miterlimit="10"></path>
  <path d="M191.21,626.62l-.28,5s1.92,5.82,16.71,6h16.13s4.36-.22,1.57-5.35l-34.13-5.65Z" fill="#fff" stroke="#002346" stroke-miterlimit="10"></path>
  <path d="M150.56,595.62v7.62c0,.63-.15,1.25-.43,1.82l-1.72,3.39s12.74,5.1,18.78,0v-11.24l-16.63-1.59Z" fill="#f2b3c1" stroke="#002346" stroke-miterlimit="10"></path>
  <path d="M212.41,600.87c-.06,.55-.51,.98-1.07,1-8.7,.34-13.25-.35-15.63-1.09-2.21-.69-2.52-1.43-2.52-1.43-2.93-8.8-.88-50.04-.03-64.91,.18-3.21,.18-6.43-.05-9.64-.86-11.88,.06-20.94,.86-26.01,.57-3.65,.89-7.34,.89-11.04v-16.53c-1.94-30.71-3.59-31.54-3.59-31.54-1.76-1.75-9.57,46.4-12.75,66.57-.75,4.76-.98,9.58-.67,14.38,1.05,16.27-3.69,40.51-3.69,40.51l-1.47,11c-.39,3.01-.97,5.99-1.74,8.92-1.2,4.7-1.95,9.5-2.23,14.34-.09,2.03-1.2,3.87-2.94,4.9-3.08,1.81-6.85,1.97-10.07,.44-1.96-.89-3.75-2.11-5.29-3.61-.93-.91-1.45-2.17-1.43-3.47l-4.34-143.78c-2.74-24.34-.55-46.29-.55-46.29,.76-.92,1.7-1.67,2.76-2.22h0c1.52-.63,1.79,.71,1.79,.71l12.61-.84,46.53-7.46,25.5,4.42c.21,.61,.34,1.25,.41,1.89,0,.04,0,.08,0,.12,.27,3.58,.24,7.17-.08,10.75v.14c-.97,19.78-3.11,32.19-3.11,32.19l-18.09,157.59Z" fill="#f69074" stroke="#002346" stroke-miterlimit="10"></path>
  <path d="M324.78,297.62h0c-.2-.74-.52-1.44-.95-2.07l-5.54-7.75s-.55-2.9-9.68,1.45l-38.2,17.08-33.75-23s-8.8-7.88-30.3-9.28l-30.28,3.32s-15.25,.4-26.18,5.86c-4.94,2.47-9,6-10.36,11l-17,51.46s-6.85,15.77,16.18,20.13l13.49,3.11s-7.05,22-8.09,34.66c0,0,52.15,24.21,89.23-5.4,0,0,1.38-24.07-2.49-40.4,0,0-1.39-12.44-.55-18.81,0,0,2.69-12.17,3.28-20.47h0c.78,.46,26.47,15.47,37.92,14.93,0,0,7.47,0,18.81-8.58l29.74-19.64s5.82-2.95,4.72-7.6Zm-176.07,48.9l3.36-9.79,1.11,11.47-4.47-1.68Z" fill="#fbe493" stroke="#002346" stroke-miterlimit="10"></path>
  <path d="M186.83,362.55c1.53,.4,3.17,0,4.35-1.05,0,0,4.8-3.51,10-2.62,2.2,.4,4.15,1.68,5.4,3.54l1.29,1.88c.53,.78,1.42,1.24,2.36,1.24h4.49c1.06,.03,1.91,.89,1.94,1.95v.13c.03,1.07-.81,1.97-1.88,2-.02,0-.04,0-.06,0h0s1,3.15-1,4.19c.75,1.25,.35,2.88-.91,3.64-.19,.11-.39,.2-.59,.26,0,0,1.5,3.44-2.55,3.15h-9.66c-3.24-.03-6.32-1.39-8.53-3.76l-2.5-2.5c-.71-.71-1.63-1.2-2.62-1.38l-2.24-.42s3.01-6.18,2.71-10.25Z" fill="#f2b3c1" stroke="#002346" stroke-miterlimit="10"></path>
  <polygon points="197.66 283.22 181.68 282.19 181.68 253.56 202.64 253.56 202.64 282.03 197.66 283.22" fill="#f2b3c1" stroke="#002346" stroke-miterlimit="10"></polygon>
  <rect x="178.15" y="216.38" width="37" height="53" rx="18.5" ry="18.5" fill="#f2b3c1" stroke="#002346" stroke-miterlimit="10"></rect>
  <path d="M215.65,236.88c0-9-2.79-11.18-2.79-11.18,0,0-5.88,6.51-24.56,3.4,0,0,2.52,10.27-6.43,11.41l-.16,6.7c0,.15-.12,.28-.27,.29-.13,0-.24-.08-.28-.21-.82-2.78-2.81-7.46-6.42-6.93,0,0-5-22.84,9.65-24.22,0,0,1.19-9.09,12.89-10.01,3.51-.28,7.04,.26,10.33,1.52s7.34,3.44,10.05,7.23c0,0,6,9,1,15,0,0,1,5-3,7Z" fill="#002346" stroke="#002346" stroke-miterlimit="10"></path>
  <polygon points="176.09 277.41 181.68 269.8 197.66 283.22 186.87 291.11 176.09 277.41" fill="#fff" stroke="#002346" stroke-miterlimit="10"></polygon>
  <polygon points="197.66 283.22 207.62 287.8 206.38 274.09 202.64 269.8 197.66 283.22" fill="#fff" stroke="#002346" stroke-miterlimit="10"></polygon>
  <path d="M142.65,628.01l12.11-4.72c.66-.38,1.43-.54,2.19-.44,3.9,.4,7.83,.39,11.72-.05,0,0,1.88-13-1.47-14.35-.01,0-5.91,5.1-18.79,0l-22.77,10.42c-5.14,2.06-7.21,4.8-8.01,6.98-.61,1.65-.03,3.54,1.49,4.44,2.74,1.61,9.11,2.83,23.53-2.28Z" fill="#fbe493" stroke="#002346" stroke-miterlimit="10"></path>
  <path d="M214.05,616.66c-.18-1.26-.49-2.49-.61-3.75-.27-2.95-1.96-1.74-1.96-1.74-4.3,5.1-12.83,1.41-15.95-.19-1.05-.54-2.33-.2-2.96,.79-2.25,3.54-1.61,12.21-1.36,14.88,.06,.55,.27,1.07,.6,1.51,1.32,1.74,3.55,3.24,4.95,4.07,.72,.43,1.48,.78,2.27,1.07h0c.83,.31,1.68,.54,2.56,.68,3.41,.54,9.95,.92,22.28,.05,.87-.05,1.53-.79,1.48-1.65,0-.05,0-.09-.01-.14-.29-1.77-1.71-4.87-7.02-9.1-.7-.55-1.35-1.16-1.9-1.86-.91-1.14-2.13-2.93-2.37-4.63Z" fill="#fbe493" stroke="#002346" stroke-miterlimit="10"></path>
  <path d="M152.22,368.96l30.92,5.41s4.5-6.5,3.5-15.5" fill="none" stroke="#002346" stroke-linecap="round" stroke-linejoin="round"></path>
  <line x1="153.18" y1="348.2" x2="183.15" y2="358.38" fill="none" stroke="#002346" stroke-linecap="round" stroke-linejoin="round"></line>
  <line x1="152.07" y1="336.73" x2="160.65" y2="310.88" fill="none" stroke="#002346" stroke-linecap="round" stroke-linejoin="round"></line>
  <line x1="214.78" y1="369.62" x2="209.15" y2="369.38" fill="none" stroke="#002346" stroke-linecap="round" stroke-linejoin="round"></line>
  <line x1="207.78" y1="364.62" x2="202.15" y2="364.38" fill="none" stroke="#002346" stroke-linecap="round" stroke-linejoin="round"></line>
  <line x1="213.78" y1="373.62" x2="208.15" y2="373.38" fill="none" stroke="#002346" stroke-linecap="round" stroke-linejoin="round"></line>
  <line x1="212.78" y1="377.62" x2="207.15" y2="377.38" fill="none" stroke="#002346" stroke-linecap="round" stroke-linejoin="round"></line>
  <path d="M233.59,318.51s2.55-8.14-1.45-17.14" fill="none" stroke="#002346" stroke-linecap="round" stroke-linejoin="round"></path>
  <ellipse cx="176.08" cy="245.8" rx="4.01" ry="5.6" transform="translate(-54.58 50.3) rotate(-14.1)" fill="#f2b3c1" stroke="#002346" stroke-miterlimit="10"></ellipse>
  <g>
    <g>
      <rect x="109.19" y="68.68" width="103.15" height="15" fill="#e6e7e8" stroke="#002346" stroke-miterlimit="10"></rect>
      <rect x="134.35" y="94.18" width="142" height="7" fill="#e6e7e8" stroke="#002346" stroke-miterlimit="10"></rect>
      <rect x="134.35" y="111.18" width="142" height="7" fill="#e6e7e8" stroke="#002346" stroke-miterlimit="10"></rect>
    </g>
    <g>
      <rect x="109.19" y="132.68" width="103.15" height="15" fill="#e6e7e8" stroke="#002346" stroke-miterlimit="10"></rect>
      <rect x="134.35" y="158.18" width="142" height="7" fill="#e6e7e8" stroke="#002346" stroke-miterlimit="10"></rect>
      <rect x="134.35" y="175.18" width="142" height="7" fill="#e6e7e8" stroke="#002346" stroke-miterlimit="10"></rect>
    </g>
  </g>
  <polyline points="327.64 73.51 327.64 177.48 633.65 177.48" fill="none" stroke="#002346" stroke-linecap="round" stroke-linejoin="round"></polyline>
  <path d="M625.86,177.38l-.78-84.13-21.47-4.72-46.3,16.52c-10.09,3.6-20.73,5.37-31.44,5.4-9.01,.02-20.32,1.08-27.59,5.49-1.78,1.08-3.61,2.05-5.55,2.78-7.64,2.87-25.28,7.64-40.3-2.06,0,0-15.88-11.06-40.75-4.74-9.59,2.44-19.43,3.73-29.32,3.45-17.11-.48-40.94-3.42-54.64-15" fill="none" stroke="#002346" stroke-linecap="round" stroke-linejoin="round"></path>
  <path d="M328.57,136.52s26.81,11.73,63.15,6.11c7.45-1.15,15.01-1.54,22.52-.87,5.51,.5,12.03,1.43,18.76,3.17,15.84,4.09,32.64,2.05,47.27-5.29l38.55-19.35s11.44-6.49,14.63,6.05l57.56-18.42s.98-.38,2.6-.68c12.01-2.23,23.03,7.23,23.03,19.45v50.05" fill="none" stroke="#002346" stroke-linecap="round" stroke-linejoin="round"></path>
  <path d="M328.59,152.05s21.84,11.32,68.94,2.07c0,0,23.48-8.75,52.3,1.5,0,0,22.51,6.25,51.66-9.75,0,0,28.91-17.58,63.53-12.79,0,0,45.17,7.95,60.4-5.63" fill="none" stroke="#002346" stroke-linecap="round" stroke-linejoin="round"></path>
  <g>
    <circle cx="388.6" cy="364.28" r="30.57" fill="#f69074" stroke="#002346" stroke-miterlimit="10"></circle>
    <path d="M386.7,361.4v-7c-2.87,.46-4.08,1.77-4.08,3.46,0,1.92,1.72,2.83,4.08,3.54Z" fill="#fff" stroke="#002346" stroke-miterlimit="10"></path>
    <path d="M393.93,370.36c0-1.89-1.73-2.74-4-3.42v7c2.79-.43,4-1.69,4-3.58Z" fill="#fff" stroke="#002346" stroke-miterlimit="10"></path>
    <path d="M362.5,364.22c0,14.39,11.67,26.06,26.06,26.06,14.39,0,26.05-11.66,26.06-26.05,0-14.39-11.66-26.06-26.05-26.07-14.39,0-26.06,11.66-26.07,26.05h0Zm24.22-14.13v-4.36h3.23v4.36c3.84,.26,7.63,1.49,9.63,3.26l-1.78,4c-2.28-1.73-5-2.77-7.85-3v7.86c4.32,1.06,9,2.48,9,7.94,0,4.01-2.87,7.45-9,8.1v4.45h-3.23v-4.37c-2.83-.12-5.58-.94-8-2.4l1.61-4c1.95,1.14,4.12,1.87,6.37,2.12v-7.94c-4.37-1.05-9.12-2.48-9.12-7.89,0-4,2.95-7.46,9.12-8.14h.02Z" fill="#fff" stroke="#002346" stroke-miterlimit="10"></path>
  </g>
  <text transform="translate(582.29 249.43)" fill="#002346" font-family="Barlow-SemiBold, Barlow" font-size="16.97" font-weight="600">
    <tspan x="0" y="0">20%</tspan>
  </text>
  <text transform="translate(597.29 283.33)" fill="#002346" font-family="Barlow-SemiBold, Barlow" font-size="16.97" font-weight="600">
    <tspan x="0" y="0">30%</tspan>
  </text>
  <text transform="translate(606.29 318.33)" fill="#002346" font-family="Barlow-SemiBold, Barlow" font-size="16.97" font-weight="600">
    <tspan x="0" y="0">40%</tspan>
  </text>
  <path d="M661.41,389.42s-10.1-19.1-17.18-48.8c-.24-1.01-.07-2.07,.42-2.99,1.1-2.04,1.99-5.76-.84-14.62l-6-23.76c-.29-1.1-1.42-1.76-2.52-1.47-.17,.04-.33,.11-.48,.2h0c-.71,.42-1.11,1.23-1,2.05l1.47,10.7s-5.67,0-4.73,5.67c0,0-3.78-1.89-4.72,3.54,0,0-4.73-.71-1.89,8.27,0,0,2.36,10.17,10.4,14.77,0,0,9.78,66,17.24,67.46,0,0,3.47,1.18,9.34-1,0,0,2.4-2.28,1.38-9.48l-1.38-1.17,.48-9.37Z" fill="#f2b3c1" stroke="#002346" stroke-miterlimit="10"></path>
  <path d="M686.29,353.08v45.69c-3.03,2.44-6.63,4.07-10.47,4.73-5.43,.74-10.9-.99-14.91-4.73l1.91-39.34c1-20,11.74-23.79,11.74-23.79,1.12,.02,2.24,.22,3.3,.59,8.69,3.04,8.43,16.85,8.43,16.85Z" fill="#f69074" stroke="#002346" stroke-miterlimit="10"></path>
  <path d="M630.54,316.4s1.34,2.21,4.97,3.59" fill="none" stroke="#002346" stroke-linecap="round" stroke-linejoin="round"></path>
  <path d="M625.84,319.94s1.8,2.93,4.8,3.93" fill="none" stroke="#002346" stroke-linecap="round" stroke-linejoin="round"></path>
  <path d="M623.28,325.3s1.87,3.08,4.87,3.08" fill="none" stroke="#002346" stroke-linecap="round" stroke-linejoin="round"></path>
  <path d="M635.62,325.39s5.83-.01,3.09,5.89c-.58,1.25-1.03,2.58-1.2,3.95-.1,.82-.11,1.66,.08,2.32" fill="none" stroke="#002346" stroke-linecap="round" stroke-linejoin="round"></path>
</svg>
